#Comment line ignore any data following # character
#Hierarchical Translation and Rotation (.htr) file
[Header]		#Header keywords are followed by a single value
FileType htr		#Single word string
DataType HTRS		#Translation followed by rotation and scale data
FileVersion 1		#integer
NumSegments 18		#integer
NumFrames 4		#integer
DataFrameRate 60		#integer, data frame rate in this file
EulerRotationOrder ZYX
CalibrationUnits mm
RotationUnits Degrees
GlobalAxisofGravity Y
BoneLengthAxis Y
ScaleFactor 1.000000
[SegmentNames&Hierarchy]
#CHILD	PARENT
Head	Neck
Neck	Chest
Chest	Hips
LeftShoulder	LeftCollar
RightShoulder	RightCollar
LeftElbow	LeftShoulder
RightElbow	RightShoulder
LeftWrist	LeftElbow
RightWrist	RightElbow
Hips	GLOBAL
LeftHip	Hips
RightHip	Hips
LeftKnee	LeftHip
RightKnee	RightHip
LeftAnkle	LeftKnee
RightAnkle	RightKnee
LeftCollar	Chest
RightCollar	Chest
[BasePosition]
#SegmentName Tx, Ty, Tz, Rx, Ry, Rz, BoneLength
Head	0.000003	141.966248	0.000002	-37.745777	-8.179454	6.203664	80.000046
Neck	0.000000	379.566772	0.000000	32.855431	-5.194619	1.823337	141.966263
Chest	0.000000	94.891693	0.000000	0.000002	12.877405	-0.000012	379.566803
LeftShoulder	0.000003	154.023666	0.000005	171.957962	-79.977570	-157.094910	215.219986
RightShoulder	-0.000001	146.408707	-0.000001	20.020029	60.865143	-8.207462	240.139038
LeftElbow	0.000007	215.219971	-0.000011	-24.162848	54.442085	-17.491318	336.440125
RightElbow	-0.000021	240.139038	0.000007	-21.925606	-43.617706	23.102211	322.101532
LeftWrist	-0.000014	336.440094	0.000002	173.178864	-0.531422	156.628021	100.348160
RightWrist	0.000005	322.101501	0.000026	1.868945	1.747480	14.125610	109.739998
Hips	377.886597	1077.530640	704.474976	-179.011169	36.455761	-178.006714	94.891701
LeftHip	95.336761	5.238981	-8.336124	-0.485735	-9.415434	-176.117065	525.916443
RightHip	-96.119095	-4.691877	-4.857316	2.457280	-1.423929	-179.125565	528.302429
LeftKnee	0.000004	525.916443	0.000001	-10.646533	-14.541370	-1.855900	514.711975
RightKnee	-0.000002	528.302429	0.000004	-12.768950	2.118825	-3.063609	521.764099
LeftAnkle	0.000003	514.711975	0.000009	97.965164	-0.000001	0.000000	253.446518
RightAnkle	0.000001	521.764099	-0.000002	99.242271	0.000002	0.000000	256.283173
LeftCollar	19.999998	366.483276	-15.126845	169.660507	-4.312743	90.901894	154.023682
RightCollar	-19.999996	366.483215	-15.126822	171.369568	4.171492	-91.645760	146.408707
#Beginning of Data. Separated by tabs
[Head]
#Fr	Tx	Ty	Tz	Rx	Ry	Rz	SF
33	0.000001	13.294754	-0.000003	-13.220410	-4.448445	6.543497	0.999999
34	0.000003	13.357727	-0.000007	-13.469309	-4.483815	6.450952	0.999999
35	-0.000004	13.446701	-0.000002	-13.620735	-4.484575	6.595217	0.999999
36	-0.000001	13.026993	0.000000	-13.471096	-4.558978	6.656460	1.000000
[Neck]
#Fr	Tx	Ty	Tz	Rx	Ry	Rz	SF
33	0.000004	-11.959900	0.000001	-2.499371	-0.976374	-3.109636	1.093647
34	0.000003	-11.897247	0.000010	-2.592906	-0.939084	-3.134123	1.094091
35	0.000003	-11.785950	0.000001	-2.711824	-0.906624	-3.294711	1.094718
36	0.000000	-11.750549	-0.000000	-2.989735	-0.879621	-3.453166	1.091761
[Chest]
#Fr	Tx	Ty	Tz	Rx	Ry	Rz	SF
33	0.000000	-2.989937	-0.000000	-0.000020	-2.327106	0.000015	0.968491
34	-0.000000	-2.974312	-0.000000	0.000011	-2.450532	0.000001	0.968656
35	0.000000	-2.946518	-0.000000	-0.000017	-2.566335	0.000018	0.968949
36	0.000000	-2.937706	-0.000000	0.000007	-2.679272	0.000006	0.969042
[LeftShoulder]
#Fr	Tx	Ty	Tz	Rx	Ry	Rz	SF
33	-0.000009	14.150360	-0.000016	80.560143	33.843025	74.832336	1.245747
34	0.000002	14.160248	0.000003	81.181427	34.141487	75.969757	1.245445
35	-0.000002	14.158813	-0.000007	81.811478	34.472698	77.088463	1.245049
36	-0.000003	14.176559	0.000001	82.438538	34.818329	78.213211	1.244527
[RightShoulder]
#Fr	Tx	Ty	Tz	Rx	Ry	Rz	SF
33	0.000003	13.709564	0.000002	53.142330	-42.785503	-76.227798	1.130112
34	-0.000001	13.745178	0.000001	53.718689	-43.153732	-76.854759	1.130306
35	0.000003	13.759125	0.000011	54.446102	-43.592083	-77.594025	1.130286
36	-0.000001	13.771545	-0.000001	55.298977	-44.057220	-78.405823	1.130084
[LeftElbow]
#Fr	Tx	Ty	Tz	Rx	Ry	Rz	SF
33	0.000009	52.889648	0.000008	-6.595060	-28.686344	6.101004	0.939874
34	-0.000005	52.824707	0.000025	-6.581028	-27.954220	5.874522	0.939831
35	0.000002	52.739532	0.000005	-6.702791	-27.124332	5.641144	0.939391
36	-0.000022	52.626984	0.000011	-6.994357	-26.183031	5.395087	0.938549
[RightElbow]
#Fr	Tx	Ty	Tz	Rx	Ry	Rz	SF
33	0.000027	31.244904	-0.000007	-8.989949	30.845299	-2.538569	0.986121
34	0.000020	31.291534	-0.000023	-8.920388	29.730574	-2.028282	0.985510
35	0.000019	31.286865	-0.000014	-8.972265	28.578445	-1.432303	0.984353
36	0.000016	31.238312	0.000006	-9.207557	27.397423	-0.710119	0.982357
[LeftWrist]
#Fr	Tx	Ty	Tz	Rx	Ry	Rz	SF
33	0.000029	-20.228973	-0.000007	103.419868	-83.792877	-108.722305	1.037835
34	0.000014	-20.243195	0.000017	103.909058	-83.818489	-108.996658	1.039126
35	0.000031	-20.391205	0.000002	104.310715	-83.776367	-109.278389	1.040035
36	0.000010	-20.674438	0.000001	104.747375	-83.668701	-109.626801	1.041058
[RightWrist]
#Fr	Tx	Ty	Tz	Rx	Ry	Rz	SF
33	0.000002	-4.470337	-0.000040	-109.194923	82.655434	-101.594177	0.983154
34	-0.000008	-4.667328	-0.000030	-110.596283	82.507660	-102.278656	0.981681
35	-0.000004	-5.039978	-0.000022	-112.478760	82.257622	-103.228348	0.979564
36	-0.000012	-5.682678	-0.000019	-115.175926	81.935547	-104.674370	0.976240
[Hips]
#Fr	Tx	Ty	Tz	Rx	Ry	Rz	SF
33	-1134.528809	12.970459	-554.663574	36.448265	-82.551292	-25.664082	0.968491
34	-1134.270996	12.442383	-555.826355	36.170254	-82.513077	-25.340616	0.968656
35	-1134.090088	11.802002	-557.071106	36.012711	-82.493225	-25.117012	0.968949
36	-1133.892700	11.142090	-558.358826	35.895599	-82.475677	-24.922810	0.969041
[LeftHip]
#Fr	Tx	Ty	Tz	Rx	Ry	Rz	SF
33	1.187363	-3.959992	3.701310	19.414557	-0.506942	5.348432	1.009328
34	1.210274	-3.924262	3.879182	19.651348	-0.480302	5.304688	1.008970
35	1.187248	-3.837999	4.053549	19.910824	-0.463183	5.274927	1.008916
36	1.151215	-3.939907	3.919365	20.291559	-0.477378	5.270279	1.008075
[RightHip]
#Fr	Tx	Ty	Tz	Rx	Ry	Rz	SF
33	0.659019	1.909014	-4.693066	17.841267	0.994617	-5.171663	1.010787
34	0.684914	1.868351	-4.747458	18.033810	1.048987	-5.248499	1.010868
35	0.758446	1.773909	-4.801622	18.258768	1.116825	-5.321423	1.010891
36	0.775734	1.830269	-4.852995	18.472765	1.101637	-5.415206	1.011066
[LeftKnee]
#Fr	Tx	Ty	Tz	Rx	Ry	Rz	SF
33	-0.000011	4.905701	0.000009	-16.095020	-1.945380	5.715267	0.965991
34	-0.000010	4.717468	0.000020	-16.470942	-1.917857	5.728942	0.966304
35	0.000001	4.689026	-0.000011	-16.865267	-1.878787	5.722569	0.966123
36	-0.000002	4.246948	-0.000021	-17.421972	-1.843088	5.691168	0.967352
[RightKnee]
#Fr	Tx	Ty	Tz	Rx	Ry	Rz	SF
33	-0.000007	5.698730	0.000005	-16.578459	12.600313	-1.326134	0.997966
34	-0.000004	5.741394	-0.000004	-16.864727	12.579454	-1.415601	0.998062
35	-0.000004	5.753601	-0.000008	-17.153509	12.540907	-1.513394	0.998133
36	0.000004	5.845947	-0.000013	-17.405224	12.580095	-1.587566	0.998167
[LeftAnkle]
#Fr	Tx	Ty	Tz	Rx	Ry	Rz	SF
33	0.000003	-17.504608	-0.000015	2.454149	0.000000	-0.000001	1.032288
34	0.000020	-17.343750	0.000006	2.587760	-0.000001	-0.000001	1.032506
35	0.000016	-17.436829	0.000008	2.715652	-0.000000	-0.000001	1.032541
36	-0.000014	-16.804382	-0.000008	2.917507	-0.000001	-0.000001	1.031885
[RightAnkle]
#Fr	Tx	Ty	Tz	Rx	Ry	Rz	SF
33	0.000003	-1.061218	-0.000007	4.717522	0.000002	0.000002	0.997591
34	-0.000006	-1.011230	0.000017	4.816010	0.000001	0.000001	0.997933
35	-0.000002	-0.974182	-0.000011	4.917459	0.000000	0.000002	0.997815
36	-0.000005	-0.956482	0.000009	5.008006	0.000000	0.000001	0.998037
[LeftCollar]
#Fr	Tx	Ty	Tz	Rx	Ry	Rz	SF
33	0.000010	-11.369019	-0.491510	-2.115843	1.509937	9.706043	1.091871
34	0.000000	-11.340515	-0.464185	-2.079069	1.382215	9.698262	1.091935
35	0.000000	-11.270935	-0.430583	-2.018266	1.222845	9.695878	1.091926
36	-0.000008	-11.277374	-0.396729	-1.921873	1.058936	9.682988	1.092041
[RightCollar]
#Fr	Tx	Ty	Tz	Rx	Ry	Rz	SF
33	-0.000011	-11.368958	-0.491557	-4.632490	-1.885705	-11.069285	1.093639
34	-0.000004	-11.340424	-0.464230	-4.763713	-1.782395	-11.011127	1.093882
35	0.000008	-11.270813	-0.430600	-4.917405	-1.654286	-10.944534	1.093978
36	-0.000008	-11.277252	-0.396735	-5.078427	-1.526292	-10.867446	1.094063
[EndOfFile]
